# xmcd
#
# Track frame offsets:
#	150
#	15782
#	26169
#	41520
#	57127
#	68845
#	84222
#	90325
#	105300
#	120612
#	135362
#	147805
#	164659
#	178182
#	191365
#	207927
#	219755
#	232730
#	245077
#	258717
#	272362
#	290480
#	306672
#	324580
#
# Disc length: 4480 seconds
#
# Revision: 0
# Processed by: cddbd v1.5.1PL0 Copyright (c) Steve Scherf et al.
# Submitted via: dBpowerAMP V4.0
#
DISCID=46117e18
DTITLE=Diversos - Os Clássicos da Música Sertaneja
DYEAR=1900
DGENRE=Sertanejo (BR)
TTITLE0=Alexandre Luiz - Tristeza do Jeca
TTITLE1=Alexandre Luiz - Pingo d'Água
TTITLE2=Miltinho Rodrigues - Pombinha Branca "Volla Colomba"
TTITLE3=Perla - Galopera
TTITLE4=Samara - Colcha de Retalho
TTITLE5=Alexandre Luiz - O Menino da Porteira
TTITLE6=Zé Paraíba - Asa Branca
TTITLE7=Alexandre Luiz - Meu Cavalo Zaino
TTITLE8=Ivo and Ivonete - Casa de Caboclo
TTITLE9=Miltinho Rodrigues - Pé de Cedro
TTITLE10=Alexandre Luiz - Saudades da Minha Terra
TTITLE11=Markos Belmonte - Os Três Boiadeiros
TTITLE12=Carreiro and Carreirinho - Canoeiro
TTITLE13=Markos Belmonte - Fio de Cabelo
TTITLE14=Waldir Silva - Saudade de Matão - Beijinho Doce
TTITLE15=Tião Brasil and Parentinho - Mula Preta "Moda da Mula Preta"
TTITLE16=Cássia Moreno - Disco Voador
TTITLE17=ião Brasil and Parentinho - Arroz à Carreteiro
TTITLE18=Mário Zan - Chalana
TTITLE19=Peão Brasil and Parentinho - Peão de Ouro
TTITLE20=Alexandre Luiz - Viola Manhosa
TTITLE21=Tião Brasil and Carriél - Chico Mulato
TTITLE22=Cássia Moreno - Lembranças
TTITLE23=Peão Brasil and Parentinho - Majestade o Pagode
EXTD=
EXTT0=
EXTT1=
EXTT2=
EXTT3=
EXTT4=
EXTT5=
EXTT6=
EXTT7=
EXTT8=
EXTT9=
EXTT10=
EXTT11=
EXTT12=
EXTT13=
EXTT14=
EXTT15=
EXTT16=
EXTT17=
EXTT18=
EXTT19=
EXTT20=
EXTT21=
EXTT22=
EXTT23=
PLAYORDER=
